<?xml version="1.0" standalone="no"?><!DOCTYPE svg PUBLIC "-//W3C//DTD SVG 1.1//EN" "http://www.w3.org/Graphics/SVG/1.1/DTD/svg11.dtd"><svg t="1587912333144" class="icon" viewBox="0 0 1024 1024" version="1.1" xmlns="http://www.w3.org/2000/svg" p-id="1068" xmlns:xlink="http://www.w3.org/1999/xlink" width="200" height="200"><defs><style type="text/css"></style></defs><path d="M512.01 173.92l348 275.5V860H716V728c0-27.43-4.08-53.33-12.12-76.98-8.59-25.26-21.54-47.49-38.49-66.07C629.02 545.07 575.98 524 512 524c-27.52 0-54.24 5.4-79.42 16.05-24.3 10.28-46.11 24.98-64.83 43.7-18.72 18.72-33.43 40.54-43.7 64.83C313.4 673.76 308 700.48 308 728v132H164.01V449.42l348-275.5m0-41.51c-3.51 0-7.02 1.15-9.93 3.46L140.14 422.39A31.992 31.992 0 0 0 128 447.48V880c0 8.84 7.16 16 16 16h184c8.84 0 16-7.16 16-16V728c0-92.78 75.22-168 168-168 114.12 0 168 75.22 168 168v152c0 8.84 7.16 16 16 16h184.01c8.84 0 16-7.16 16-16V447.48c0-9.78-4.47-19.02-12.14-25.09L521.94 135.86c-2.91-2.3-6.42-3.45-9.93-3.45z" fill="#808080" p-id="1069"></path></svg>