<?xml version="1.0" standalone="no"?><!DOCTYPE svg PUBLIC "-//W3C//DTD SVG 1.1//EN" "http://www.w3.org/Graphics/SVG/1.1/DTD/svg11.dtd"><svg t="1587912232302" class="icon" viewBox="0 0 1024 1024" version="1.1" xmlns="http://www.w3.org/2000/svg" p-id="936" xmlns:xlink="http://www.w3.org/1999/xlink" width="200" height="200"><defs><style type="text/css"></style></defs><path d="M448 196v252H196V196h252m20-36H176c-8.84 0-16 7.16-16 16v292c0 8.84 7.16 16 16 16h292c8.84 0 16-7.16 16-16V176c0-8.84-7.16-16-16-16z m234 36c33.66 0 65.3 13.11 89.1 36.9 23.8 23.8 36.9 55.44 36.9 89.1s-13.11 65.3-36.9 89.1C767.3 434.9 735.66 448 702 448s-65.3-13.11-89.1-36.9C589.1 387.3 576 355.66 576 322s13.11-65.3 36.9-89.1c23.8-23.79 55.44-36.9 89.1-36.9m0-36c-89.47 0-162 72.53-162 162s72.53 162 162 162 162-72.53 162-162-72.53-162-162-162zM448 576v252H196V576h252m20-36H176c-8.84 0-16 7.16-16 16v292c0 8.84 7.16 16 16 16h292c8.84 0 16-7.16 16-16V556c0-8.84-7.16-16-16-16z m360 36v252H576V576h252m20-36H556c-8.84 0-16 7.16-16 16v292c0 8.84 7.16 16 16 16h292c8.84 0 16-7.16 16-16V556c0-8.84-7.16-16-16-16z" fill="#f00" p-id="937"></path></svg>