<?xml version="1.0" standalone="no"?><!DOCTYPE svg PUBLIC "-//W3C//DTD SVG 1.1//EN" "http://www.w3.org/Graphics/SVG/1.1/DTD/svg11.dtd"><svg t="1587912347939" class="icon" viewBox="0 0 1024 1024" version="1.1" xmlns="http://www.w3.org/2000/svg" p-id="1202" xmlns:xlink="http://www.w3.org/1999/xlink" width="200" height="200"><defs><style type="text/css"></style></defs><path d="M520 164c41.67 0 80.84 16.23 110.31 45.69C659.77 239.16 676 278.33 676 320s-16.23 80.84-45.69 110.31C600.84 459.77 561.67 476 520 476s-80.84-16.23-110.31-45.69C380.23 400.84 364 361.67 364 320s16.23-80.84 45.69-110.31C439.16 180.23 478.33 164 520 164m0-36c-106.04 0-192 85.96-192 192s85.96 192 192 192 192-85.96 192-192-85.96-192-192-192z m64 468c77.4 0 149.05 27.02 201.74 76.08 25.88 24.09 46.12 52.48 60.16 84.37 14.15 32.14 21.57 66.96 22.07 103.55H172.03c0.5-36.6 7.92-71.42 22.07-103.55 14.04-31.89 34.28-60.28 60.16-84.37C306.95 623.02 378.6 596 456 596h128m0-36H456c-176.73 0-320 127.27-320 304 0 17.67 14.33 32 32 32h704c17.67 0 32-14.33 32-32 0-176.73-143.27-304-320-304z" fill="#f00" p-id="1203"></path></svg>